<?xml version="1.0" encoding="UTF-8"?>
<svg width="145px" height="294px" viewBox="0 0 145 294" version="1.1" xmlns="http://www.w3.org/2000/svg" xmlns:xlink="http://www.w3.org/1999/xlink">
    <!-- Generator: Sketch 48.2 (47327) - http://www.bohemiancoding.com/sketch -->
    <title>Fraiment</title>
    <defs></defs>
    <g id="App-Icon-60-x-60" stroke="none" stroke-width="1" fill="none" fill-rule="evenodd" transform="translate(-170.000000, -96.000000)">
        <g id="fairment-logo" transform="translate(170.000000, 96.000000)" fill="#FFFFFF">
            <g id="logo">
                <path d="M58.8464865,146.305535 L58.8464865,95.6265205 L35.2702703,95.6265205 L35.2702703,75.7795068 L58.8464865,75.7795068 L58.8464865,50.2619178 C58.8464865,43.0447858 59.6407128,36.3862223 61.2291892,30.2860274 C62.8176656,24.1858325 65.4093514,18.9019401 69.0043243,14.4341918 C72.5992973,9.96644341 77.1974495,6.4438485 82.7989189,3.86630137 C88.4003884,1.28875424 95.2140139,0 103.24,0 C108.925073,0 113.857637,0.601418643 118.037838,1.80427397 L115.278919,22.6823014 C113.43963,22.1667919 111.60037,21.7372072 109.761081,21.3935342 C107.921793,21.0498613 105.831723,20.8780274 103.490811,20.8780274 C98.9761936,20.8780274 95.3394733,21.6942384 92.5805405,23.3266849 C89.8216078,24.9591314 87.6897373,27.1500137 86.1848649,29.8993973 C84.6799925,32.6487809 83.6767593,35.7847495 83.1751351,39.3073973 C82.673511,42.830045 82.4227027,46.4815153 82.4227027,50.2619178 L82.4227027,75.7795068 L110.011892,75.7795068 L110.011892,95.6265205 L82.4227027,95.6265205 L82.4227027,145.678348 C117.768731,150.649911 145,181.803402 145,219.493151 C145,260.642147 112.540644,294 72.5,294 C32.4593556,294 0,260.642147 0,219.493151 C0,183.140662 25.3331782,152.868838 58.8464865,146.305535 Z M73.7719298,273.085797 C101.870628,273.085797 124.649123,249.676777 124.649123,220.800288 C124.649123,191.9238 101.870628,168.51478 73.7719298,168.51478 C45.673232,168.51478 22.8947368,191.9238 22.8947368,220.800288 C22.8947368,249.676777 45.673232,273.085797 73.7719298,273.085797 Z" id="Combined-Shape"></path>
            </g>
        </g>
    </g>
</svg>